<svg xmlns="http://www.w3.org/2000/svg" viewBox="280 160 440 450" fill="currentColor">
  <path d="M601.053,369.555c-12.725,10.341-25.223,20.016-34.519,33.088-5.804,8.161-8.049,17.445-8.412,27.172-.385,10.303-.356,20.635-.064,30.942,.077,2.723,1.194,5.849,2.842,8.027,13.886,18.35,21.563,38.394,18.057,61.804-5.341,35.656-33.72,63.391-66.663,68.315-44.077,6.588-80.943-22.299-89.718-62.963-5.09-23.589,.365-45.56,15.581-64.608,3.109-3.892,4.629-7.652,4.267-12.659-.466-6.452-.641-12.993-.142-19.434,1.478-19.104-5.576-34.875-18.711-48.054-7.137-7.161-15.212-13.384-22.773-20.131-2.764-2.466-4.106-.234-5.699,1.376-10.287,10.402-22.786,15.992-37.353,16.384-27.811,.749-52.709-21.712-55.482-49.725-2.72-27.477,16.618-53.472,43.705-58.753,34.968-6.817,67.179,21.773,64.253,57.306-.407,4.94,.879,7.61,5.004,10.455,15.507,10.697,30.045,22.515,40.836,38.352,9.168,13.453,13.789,28.227,13.919,44.43,.103,12.813-.092,25.629,.114,38.44,.089,5.536-1.735,9.903-5.638,13.773-12.33,12.228-17.692,26.854-15.545,44.331,2.609,21.239,22.189,40.096,43.275,43.72,25.294,4.348,57.611-14.005,59.42-50.071,.713-14.216-4.718-26.75-15.532-36.406-4.34-3.875-6.158-8.484-6.056-14.101,.3-16.452,.142-32.928,1.004-49.351,.926-17.638,8.439-32.944,20.806-45.172,10.83-10.708,22.981-20.093,34.725-29.851,2.01-1.67,2.946-2.851,2.611-5.653-3.995-33.42,21.546-55.826,42.575-59.964,24.223-4.767,49.307,7.122,60.235,29.52,11.06,22.671,5.236,50.133-13.992,65.969-21.625,17.811-51.104,16.995-71.793-1.978-1.581-1.449-3.216-2.839-5.139-4.532Zm69.069-34.967c-.081-14.985-11.957-27.275-26.507-27.432-15.145-.163-27.716,12.258-27.687,27.357,.028,14.338,12.696,26.547,27.472,26.476,14.732-.071,26.799-11.993,26.721-26.401Zm-286.917-.348c.054-15.498-11.656-27.107-27.197-26.963-14.323,.133-26.719,12.624-26.693,26.899,.026,14.452,12.711,26.966,27.266,26.899,14.419-.066,26.573-12.317,26.624-26.836Z"/>
  <path d="M513.953,376.554c0,34.614,.087,69.228-.111,103.841-.024,4.242,1.418,6.518,4.857,8.731,14.432,9.289,20.684,25.545,16.289,41.383-6.147,22.152-33.312,32.237-53.272,20.791-22.662-12.995-24.769-48.168,.376-62.585,2.61-1.496,4.095-2.92,4.088-6.404-.142-70.567-.128-141.135-.052-211.702,.004-3.525-1.213-5.31-4.516-6.667-23.634-9.708-37.385-30.323-35.312-55.552,2.051-24.963,19.209-43.385,42.964-47.962,36.603-7.052,67.85,20.882,64.372,58.046-1.935,20.679-13.275,35.961-32.542,44.349-5.387,2.345-7.379,4.946-7.329,10.875,.29,34.283,.141,68.569,.141,102.854h.048Zm12.462-163.264c-.002-14.953-12.046-27.185-26.733-27.15-14.15,.034-26.367,12.508-26.494,27.051-.123,14.11,12.399,26.743,26.688,26.924,14.283,.181,26.541-12.209,26.539-26.825Zm-25.932,295.459c-6.519-.103-11.388,4.517-11.569,10.977-.184,6.612,4.736,11.99,11.114,12.147,6.141,.151,11.845-5.298,12.022-11.486,.184-6.435-4.883-11.533-11.567-11.638Z"/>
</svg>
