<?xml version="1.0" encoding="UTF-8"?>
<svg id="Layer_2" data-name="Layer 2" xmlns="http://www.w3.org/2000/svg" viewBox="0 0 1000 1000">
  <defs>
    <style>
      .cls-1 {
        fill: #fff;
        opacity: 0;
      }

      .cls-2 {
        fill: #265a75;
      }
    </style>
  </defs>
  <g id="Layer_1-2" data-name="Layer 1">
    <rect class="cls-1" width="1000" height="1000"/>
    <path class="cls-2" d="M601.053,369.555c-12.725,10.341-25.223,20.016-34.519,33.088-5.804,8.161-8.049,17.445-8.412,27.172-.385,10.303-.356,20.635-.064,30.942,.077,2.723,1.194,5.849,2.842,8.027,13.886,18.35,21.563,38.394,18.057,61.804-5.341,35.656-33.72,63.391-66.663,68.315-44.077,6.588-80.943-22.299-89.718-62.963-5.09-23.589,.365-45.56,15.581-64.608,3.109-3.892,4.629-7.652,4.267-12.659-.466-6.452-.641-12.993-.142-19.434,1.478-19.104-5.576-34.875-18.711-48.054-7.137-7.161-15.212-13.384-22.773-20.131-2.764-2.466-4.106-.234-5.699,1.376-10.287,10.402-22.786,15.992-37.353,16.384-27.811,.749-52.709-21.712-55.482-49.725-2.72-27.477,16.618-53.472,43.705-58.753,34.968-6.817,67.179,21.773,64.253,57.306-.407,4.94,.879,7.61,5.004,10.455,15.507,10.697,30.045,22.515,40.836,38.352,9.168,13.453,13.789,28.227,13.919,44.43,.103,12.813-.092,25.629,.114,38.44,.089,5.536-1.735,9.903-5.638,13.773-12.33,12.228-17.692,26.854-15.545,44.331,2.609,21.239,22.189,40.096,43.275,43.72,25.294,4.348,57.611-14.005,59.42-50.071,.713-14.216-4.718-26.75-15.532-36.406-4.34-3.875-6.158-8.484-6.056-14.101,.3-16.452,.142-32.928,1.004-49.351,.926-17.638,8.439-32.944,20.806-45.172,10.83-10.708,22.981-20.093,34.725-29.851,2.01-1.67,2.946-2.851,2.611-5.653-3.995-33.42,21.546-55.826,42.575-59.964,24.223-4.767,49.307,7.122,60.235,29.52,11.06,22.671,5.236,50.133-13.992,65.969-21.625,17.811-51.104,16.995-71.793-1.978-1.581-1.449-3.216-2.839-5.139-4.532Zm69.069-34.967c-.081-14.985-11.957-27.275-26.507-27.432-15.145-.163-27.716,12.258-27.687,27.357,.028,14.338,12.696,26.547,27.472,26.476,14.732-.071,26.799-11.993,26.721-26.401Zm-286.917-.348c.054-15.498-11.656-27.107-27.197-26.963-14.323,.133-26.719,12.624-26.693,26.899,.026,14.452,12.711,26.966,27.266,26.899,14.419-.066,26.573-12.317,26.624-26.836Z"/>
    <path class="cls-2" d="M513.953,376.554c0,34.614,.087,69.228-.111,103.841-.024,4.242,1.418,6.518,4.857,8.731,14.432,9.289,20.684,25.545,16.289,41.383-6.147,22.152-33.312,32.237-53.272,20.791-22.662-12.995-24.769-48.168,.376-62.585,2.61-1.496,4.095-2.92,4.088-6.404-.142-70.567-.128-141.135-.052-211.702,.004-3.525-1.213-5.31-4.516-6.667-23.634-9.708-37.385-30.323-35.312-55.552,2.051-24.963,19.209-43.385,42.964-47.962,36.603-7.052,67.85,20.882,64.372,58.046-1.935,20.679-13.275,35.961-32.542,44.349-5.387,2.345-7.379,4.946-7.329,10.875,.29,34.283,.141,68.569,.141,102.854h.048Zm12.462-163.264c-.002-14.953-12.046-27.185-26.733-27.15-14.15,.034-26.367,12.508-26.494,27.051-.123,14.11,12.399,26.743,26.688,26.924,14.283,.181,26.541-12.209,26.539-26.825Zm-25.932,295.459c-6.519-.103-11.388,4.517-11.569,10.977-.184,6.612,4.736,11.99,11.114,12.147,6.141,.151,11.845-5.298,12.022-11.486,.184-6.435-4.883-11.533-11.567-11.638Z"/>
    <g>
      <path class="cls-2" d="M225.443,740.998v-93.974c0-4.882,1.111-8.543,3.336-10.983,2.224-2.441,5.099-3.662,8.625-3.662,3.633,0,6.576,1.208,8.827,3.621,2.251,2.414,3.377,6.09,3.377,11.024v93.974c0,4.937-1.126,8.624-3.377,11.065-2.251,2.44-5.194,3.661-8.827,3.661-3.472,0-6.334-1.234-8.584-3.702-2.251-2.468-3.377-6.143-3.377-11.024Z"/>
      <path class="cls-2" d="M354.077,654.347h-26.361v86.651c0,4.991-1.112,8.693-3.336,11.105-2.225,2.413-5.099,3.621-8.624,3.621-3.58,0-6.496-1.221-8.746-3.661-2.252-2.441-3.377-6.129-3.377-11.065v-86.651h-26.361c-4.123,0-7.188-.907-9.193-2.726-2.008-1.816-3.011-4.217-3.011-7.2,0-3.092,1.044-5.532,3.133-7.322,2.087-1.79,5.111-2.686,9.071-2.686h76.806c4.177,0,7.282,.923,9.316,2.767,2.034,1.845,3.051,4.259,3.051,7.241s-1.03,5.384-3.092,7.2c-2.062,1.818-5.153,2.726-9.275,2.726Z"/>
      <path class="cls-2" d="M446.749,647.024v34.172h52.153v-34.172c0-4.882,1.098-8.543,3.295-10.983,2.196-2.441,5.085-3.662,8.665-3.662,3.633,0,6.576,1.208,8.828,3.621,2.25,2.414,3.376,6.09,3.376,11.024v93.974c0,4.937-1.139,8.624-3.417,11.065-2.278,2.44-5.207,3.661-8.787,3.661-3.635,0-6.537-1.234-8.706-3.702-2.17-2.468-3.254-6.143-3.254-11.024v-40.111h-52.153v40.111c0,4.937-1.14,8.624-3.417,11.065-2.278,2.44-5.208,3.661-8.787,3.661-3.635,0-6.537-1.234-8.706-3.702-2.17-2.468-3.255-6.143-3.255-11.024v-93.974c0-4.882,1.07-8.543,3.214-10.983,2.143-2.441,5.058-3.662,8.747-3.662,3.633,0,6.576,1.208,8.827,3.621,2.25,2.414,3.377,6.09,3.377,11.024Z"/>
      <path class="cls-2" d="M549.183,704.385v-57.36c0-4.882,1.099-8.543,3.296-10.983,2.196-2.441,5.085-3.662,8.665-3.662,3.742,0,6.712,1.221,8.909,3.662,2.196,2.44,3.295,6.102,3.295,10.983v58.662c0,6.672,.744,12.245,2.238,16.72,1.49,4.476,4.135,7.947,7.932,10.415,3.797,2.469,9.113,3.702,15.947,3.702,9.438,0,16.109-2.509,20.016-7.526,3.904-5.017,5.857-12.624,5.857-22.822v-59.15c0-4.935,1.084-8.61,3.254-11.024,2.17-2.413,5.072-3.621,8.707-3.621s6.576,1.208,8.828,3.621c2.25,2.414,3.375,6.09,3.375,11.024v57.36c0,9.33-.908,17.114-2.725,23.352-1.818,6.237-5.248,11.716-10.293,16.435-4.34,4.015-9.385,6.944-15.133,8.787-5.75,1.844-12.477,2.767-20.178,2.767-9.168,0-17.061-.99-23.676-2.97-6.619-1.979-12.016-5.045-16.192-9.194-4.178-4.149-7.241-9.465-9.193-15.946-1.953-6.481-2.93-14.225-2.93-23.229Z"/>
      <path class="cls-2" d="M726.554,753.69h-36.451c-5.262,0-9.018-1.18-11.269-3.539s-3.376-6.115-3.376-11.269v-89.661c0-5.261,1.151-9.044,3.458-11.351s6.033-3.458,11.187-3.458h38.647c5.695,0,10.631,.354,14.808,1.058,4.177,.706,7.919,2.062,11.229,4.068,2.819,1.682,5.315,3.812,7.485,6.387,2.169,2.577,3.824,5.425,4.963,8.543,1.139,3.12,1.709,6.415,1.709,9.886,0,11.934-5.968,20.666-17.9,26.199,15.675,4.99,23.514,14.699,23.514,29.127,0,6.672-1.708,12.68-5.126,18.022-3.417,5.343-8.027,9.289-13.831,11.838-3.635,1.52-7.811,2.591-12.53,3.214-4.719,.624-10.225,.936-16.516,.936Zm-26.932-101.133v30.836h22.131c6.021,0,10.671-.569,13.953-1.709,3.281-1.139,5.79-3.308,7.526-6.509,1.355-2.278,2.034-4.827,2.034-7.647,0-6.021-2.144-10.021-6.428-12.001-4.285-1.979-10.821-2.97-19.608-2.97h-19.608Zm25.142,48.166h-25.142v34.823h25.955c16.325,0,24.49-5.885,24.49-17.656,0-6.021-2.116-10.386-6.347-13.099-4.23-2.712-10.551-4.068-18.957-4.068Z"/>
    </g>
    <path class="cls-2" d="M317.229,828.635l23.663-28.314h-20.332c-1.426,0-2.499-.313-3.222-.942s-1.084-1.456-1.084-2.482c0-1.068,.361-1.933,1.084-2.593s1.796-.99,3.222-.99h26.209c3.394,0,5.091,1.582,5.091,4.745,0,1.509-.283,2.714-.849,3.614-.565,.901-1.708,2.357-3.426,4.368l-22.123,26.335h24.386c1.446,0,2.524,.299,3.237,.896,.712,.597,1.068,1.43,1.068,2.498,0,1.111-.356,1.991-1.068,2.64-.713,.65-1.791,.975-3.237,.975h-29.917c-2.032,0-3.562-.456-4.588-1.367-1.027-.911-1.54-2.132-1.54-3.661,0-.523,.083-1.006,.251-1.445,.168-.44,.394-.854,.676-1.241,.283-.388,.676-.88,1.179-1.478,.503-.597,.942-1.115,1.32-1.556Z"/>
    <path class="cls-2" d="M389.507,834.166l-2.199-5.782h-18.73l-2.199,5.908c-.859,2.305-1.593,3.86-2.2,4.667-.607,.806-1.603,1.209-2.985,1.209-1.174,0-2.21-.429-3.111-1.288-.9-.858-1.351-1.833-1.351-2.923,0-.628,.104-1.277,.313-1.948,.21-.67,.556-1.603,1.037-2.797l11.785-29.917c.335-.859,.738-1.891,1.21-3.096,.471-1.204,.974-2.204,1.508-3.001,.534-.796,1.236-1.44,2.105-1.933s1.943-.738,3.222-.738c1.299,0,2.383,.246,3.253,.738,.869,.492,1.571,1.126,2.105,1.901s.984,1.608,1.351,2.498c.366,.891,.833,2.08,1.398,3.567l12.036,29.729c.943,2.263,1.414,3.907,1.414,4.934,0,1.068-.445,2.048-1.335,2.938-.891,.89-1.965,1.335-3.222,1.335-.733,0-1.362-.131-1.886-.393s-.964-.617-1.319-1.068c-.356-.45-.738-1.142-1.147-2.074-.408-.932-.76-1.754-1.053-2.467Zm-18.478-12.79h13.764l-6.944-19.013-6.819,19.013Z"/>
    <path class="cls-2" d="M409.871,798.655l10.434,30.892,10.464-31.111c.545-1.635,.953-2.771,1.227-3.41,.271-.639,.723-1.215,1.351-1.729,.629-.513,1.487-.77,2.577-.77,.796,0,1.534,.199,2.216,.597,.681,.398,1.215,.927,1.603,1.587s.581,1.325,.581,1.996c0,.461-.062,.958-.188,1.492s-.283,1.059-.472,1.571c-.188,.514-.377,1.043-.565,1.587l-11.156,30.106c-.397,1.152-.796,2.247-1.194,3.283-.397,1.037-.858,1.949-1.382,2.734-.524,.786-1.221,1.43-2.09,1.933-.87,.503-1.933,.754-3.19,.754s-2.32-.246-3.189-.738-1.571-1.142-2.105-1.948-1-1.723-1.398-2.75c-.398-1.026-.796-2.115-1.194-3.268l-10.967-29.854c-.188-.545-.383-1.079-.582-1.603s-.366-1.09-.503-1.697c-.136-.607-.204-1.121-.204-1.54,0-1.068,.43-2.043,1.289-2.923,.858-.88,1.938-1.319,3.236-1.319,1.592,0,2.719,.487,3.378,1.461,.66,.975,1.336,2.53,2.027,4.667Z"/>
    <path class="cls-2" d="M447.707,834.48v-36.297c0-1.886,.429-3.3,1.288-4.242,.859-.943,1.97-1.414,3.331-1.414,1.403,0,2.54,.466,3.41,1.398,.869,.933,1.304,2.352,1.304,4.258v36.297c0,1.906-.435,3.331-1.304,4.273-.87,.943-2.007,1.414-3.41,1.414-1.341,0-2.446-.477-3.315-1.43s-1.304-2.372-1.304-4.258Z"/>
    <path class="cls-2" d="M473.257,793.313h12.162c3.163,0,5.876,.294,8.139,.88,2.263,.587,4.315,1.687,6.159,3.3,4.798,4.106,7.197,10.35,7.197,18.729,0,2.766-.241,5.291-.724,7.574-.481,2.283-1.226,4.342-2.23,6.175-1.006,1.834-2.294,3.473-3.865,4.918-1.237,1.111-2.588,2.001-4.055,2.672-1.467,.67-3.043,1.142-4.729,1.414s-3.588,.408-5.703,.408h-12.162c-1.697,0-2.976-.256-3.834-.77-.859-.514-1.42-1.236-1.682-2.169-.262-.932-.393-2.142-.393-3.63v-33.782c0-2.012,.45-3.467,1.352-4.368s2.356-1.352,4.368-1.352Zm3.614,7.385v31.27h7.07c1.55,0,2.766-.042,3.646-.126s1.791-.293,2.734-.629c.942-.335,1.76-.806,2.451-1.414,3.121-2.64,4.682-7.186,4.682-13.639,0-4.546-.686-7.95-2.058-10.213-1.373-2.263-3.064-3.703-5.075-4.321-2.012-.618-4.442-.928-7.291-.928h-6.159Z"/>
    <path class="cls-2" d="M535.386,792.527c4.776,0,8.878,.969,12.303,2.906,3.426,1.938,6.019,4.693,7.778,8.266s2.64,7.768,2.64,12.586c0,3.562-.482,6.799-1.445,9.71-.964,2.913-2.41,5.437-4.337,7.574-1.928,2.137-4.295,3.771-7.103,4.902-2.808,1.131-6.023,1.696-9.647,1.696-3.604,0-6.83-.581-9.679-1.743-2.85-1.163-5.228-2.803-7.134-4.919-1.907-2.115-3.348-4.661-4.321-7.636-.975-2.975-1.461-6.191-1.461-9.648,0-3.54,.507-6.787,1.523-9.741s2.488-5.469,4.416-7.543c1.927-2.073,4.273-3.661,7.039-4.761s5.908-1.649,9.428-1.649Zm13.262,23.694c0-3.372-.545-6.295-1.635-8.768-1.089-2.472-2.645-4.342-4.666-5.609-2.022-1.268-4.343-1.901-6.961-1.901-1.865,0-3.588,.352-5.17,1.053-1.582,.702-2.943,1.724-4.085,3.064-1.143,1.341-2.043,3.054-2.703,5.138-.659,2.085-.989,4.427-.989,7.023,0,2.619,.33,4.986,.989,7.103,.66,2.116,1.592,3.871,2.797,5.264,1.205,1.394,2.588,2.436,4.148,3.127s3.273,1.037,5.139,1.037c2.388,0,4.582-.597,6.583-1.791s3.593-3.038,4.777-5.531c1.183-2.493,1.775-5.562,1.775-9.208Z"/>
    <path class="cls-2" d="M571.242,798.655l10.434,30.892,10.464-31.111c.545-1.635,.953-2.771,1.227-3.41,.271-.639,.723-1.215,1.351-1.729,.629-.513,1.487-.77,2.577-.77,.796,0,1.534,.199,2.216,.597,.681,.398,1.215,.927,1.603,1.587s.581,1.325,.581,1.996c0,.461-.062,.958-.188,1.492s-.283,1.059-.472,1.571c-.188,.514-.377,1.043-.565,1.587l-11.156,30.106c-.397,1.152-.796,2.247-1.194,3.283-.397,1.037-.858,1.949-1.382,2.734-.524,.786-1.221,1.43-2.09,1.933-.87,.503-1.933,.754-3.19,.754s-2.32-.246-3.189-.738-1.571-1.142-2.105-1.948-1.001-1.723-1.398-2.75c-.398-1.026-.797-2.115-1.194-3.268l-10.968-29.854c-.188-.545-.382-1.079-.581-1.603s-.367-1.09-.503-1.697c-.137-.607-.204-1.121-.204-1.54,0-1.068,.429-2.043,1.288-2.923s1.938-1.319,3.237-1.319c1.592,0,2.718,.487,3.378,1.461,.66,.975,1.336,2.53,2.027,4.667Z"/>
    <path class="cls-2" d="M609.078,834.48v-36.297c0-1.886,.429-3.3,1.288-4.242,.859-.943,1.97-1.414,3.331-1.414,1.403,0,2.54,.466,3.41,1.398,.869,.933,1.304,2.352,1.304,4.258v36.297c0,1.906-.435,3.331-1.304,4.273-.87,.943-2.007,1.414-3.41,1.414-1.341,0-2.446-.477-3.315-1.43s-1.304-2.372-1.304-4.258Z"/>
    <path class="cls-2" d="M668.097,824.833c0,1.467-.362,3.054-1.085,4.761-.723,1.708-1.859,3.384-3.409,5.028-1.551,1.645-3.53,2.98-5.939,4.007-2.41,1.026-5.217,1.539-8.422,1.539-2.431,0-4.642-.23-6.631-.69-1.991-.461-3.798-1.179-5.421-2.153-1.624-.974-3.117-2.257-4.479-3.85-1.216-1.445-2.252-3.063-3.111-4.855-.859-1.791-1.504-3.702-1.933-5.734-.43-2.032-.645-4.19-.645-6.475,0-3.708,.539-7.028,1.619-9.962,1.078-2.933,2.624-5.441,4.635-7.526,2.012-2.084,4.368-3.671,7.071-4.761,2.702-1.089,5.583-1.634,8.642-1.634,3.729,0,7.05,.743,9.962,2.23,2.912,1.488,5.144,3.327,6.693,5.516,1.551,2.189,2.326,4.258,2.326,6.207,0,1.068-.377,2.011-1.132,2.828-.754,.816-1.665,1.226-2.733,1.226-1.194,0-2.09-.283-2.688-.849-.597-.565-1.262-1.54-1.995-2.923-1.216-2.283-2.646-3.991-4.29-5.122-1.645-1.132-3.672-1.697-6.081-1.697-3.833,0-6.887,1.457-9.16,4.368-2.273,2.912-3.409,7.051-3.409,12.413,0,3.583,.502,6.563,1.508,8.94,1.006,2.379,2.431,4.154,4.274,5.327,1.843,1.174,4.001,1.76,6.474,1.76,2.682,0,4.949-.665,6.804-1.995,1.854-1.331,3.252-3.284,4.195-5.861,.397-1.215,.89-2.205,1.477-2.97,.586-.765,1.529-1.147,2.828-1.147,1.11,0,2.063,.389,2.86,1.163,.796,.775,1.194,1.739,1.194,2.892Z"/>
    <path class="cls-2" d="M676.864,834.48v-36.297c0-1.886,.429-3.3,1.288-4.242,.859-.943,1.97-1.414,3.331-1.414,1.403,0,2.54,.466,3.41,1.398,.869,.933,1.304,2.352,1.304,4.258v36.297c0,1.906-.435,3.331-1.304,4.273-.87,.943-2.007,1.414-3.41,1.414-1.341,0-2.446-.477-3.315-1.43s-1.304-2.372-1.304-4.258Z"/>
    <rect class="cls-2" x="645.904" y="772.333" width="9.311" height="17.293" rx="4.655" ry="4.655" transform="translate(742.78 -231.271) rotate(45)"/>
  </g>
</svg>